<?xml version="1.0" encoding="utf-8"?>
<!-- Generator: Adobe Illustrator 28.0.0, SVG Export Plug-In . SVG Version: 6.00 Build 0)  -->
<svg version="1.1" id="Capa_1" xmlns="http://www.w3.org/2000/svg" xmlns:xlink="http://www.w3.org/1999/xlink" x="0px" y="0px"
	 viewBox="0 0 800 800" style="enable-background:new 0 0 800 800;" xml:space="preserve">
<style type="text/css">
	.st0{fill:#F47C7C;}
</style>
<g>
	<path class="st0" d="M400,47.5c3,0,8.6,0.9,11.7,7.3L502,237.6c10.6,21.6,31.2,36.5,55,40l201.8,29.3c7,1,9.6,6,10.6,8.9
		c0.9,2.9,1.8,8.5-3.3,13.4L620,471.5c-17.2,16.8-25.1,41-21,64.7l34.5,201c0.7,4-0.2,7.5-2.7,10.5c-2.6,3.1-6.4,4.9-10.2,4.9
		c-2.1,0-4.1-0.5-6.1-1.6L434,656.1c-10.4-5.5-22.2-8.4-34-8.4c-11.8,0-23.6,2.9-34,8.4l-180.5,94.9c-2,1.1-4.1,1.6-6.1,1.6
		c-3.8,0-7.6-1.8-10.2-4.9c-2.5-3-3.4-6.5-2.7-10.5L201,536.2c4.1-23.7-3.8-47.9-21-64.7L34,329.2c-5.1-4.9-4.3-10.5-3.3-13.4
		c0.9-2.9,3.6-7.9,10.6-8.9L243,277.6c23.8-3.5,44.4-18.4,55-40l90.2-182.8C391.4,48.4,397,47.5,400,47.5 M400,17.5
		c-15.4,0-30.7,8-38.6,24l-90.2,182.8c-6.3,12.7-18.4,21.5-32.4,23.6L36.9,277.2c-35.3,5.1-49.4,48.5-23.9,73.5l146,142.3
		c10.1,9.9,14.8,24.2,12.4,38.1l-34.5,201c-4.8,27.8,17.4,50.5,42.5,50.5c6.6,0,13.5-1.6,20.1-5L380,682.6c6.3-3.3,13.2-4.9,20-4.9
		s13.8,1.6,20,4.9l180.5,94.9c6.6,3.5,13.4,5,20,5c25.1,0,47.2-22.6,42.5-50.5l-34.5-201c-2.4-14,2.2-28.2,12.4-38.1l146-142.3
		c25.6-24.9,11.5-68.3-23.9-73.5l-201.8-29.3c-14-2-26.2-10.8-32.4-23.6L438.6,41.5C430.7,25.5,415.4,17.5,400,17.5L400,17.5z"/>
</g>
</svg>
